<?xml version="1.0" encoding="utf-8"?>
<!-- Generator: Adobe Illustrator 16.0.0, SVG Export Plug-In . SVG Version: 6.00 Build 0)  -->
<!DOCTYPE svg PUBLIC "-//W3C//DTD SVG 1.1//EN" "http://www.w3.org/Graphics/SVG/1.1/DTD/svg11.dtd">
<svg version="1.1" id="Layer_1" xmlns="http://www.w3.org/2000/svg" xmlns:xlink="http://www.w3.org/1999/xlink" x="0px" y="0px"
	 width="100px" height="100px" viewBox="0 0 100 100" enable-background="new 0 0 100 100" xml:space="preserve">
<path fill="#FF1764" d="M34.251,23.476c2.195,0,6.166,1.003,12.606,7.04l3.192,2.996l3.144-3.042
	c4.473-4.326,9.228-7.012,12.416-7.012c4.3,0,7.688,1.4,10.991,4.538c3.112,2.959,4.828,6.892,4.828,11.075
	c0,4.186-1.713,8.122-4.86,11.112c-0.256,0.249-13.785,14.154-25.125,25.807c-0.534,0.484-1.146,0.559-1.467,0.559
	s-0.926-0.072-1.457-0.539c-2.763-2.928-22.787-24.133-25.115-26.351c-3.117-2.961-4.831-6.898-4.831-11.083
	c0-4.182,1.716-8.117,4.833-11.078C26.435,24.611,29.983,23.476,34.251,23.476 M34.251,19.208c-5.358,0-10.08,1.526-14.011,5.27
	c-8.196,7.783-8.196,20.408,0,28.197c2.338,2.227,25.049,26.288,25.049,26.288c1.295,1.234,2.993,1.85,4.686,1.85
	c1.695,0,3.389-0.615,4.682-1.85c0,0,24.84-25.533,25.104-25.789c8.196-7.792,8.196-20.417,0-28.2
	c-4.064-3.867-8.609-5.786-14.15-5.786c-5.293,0-11.199,4.02-15.609,8.287C45.449,23.208,39.727,19.208,34.251,19.208L34.251,19.208
	z"/>
</svg>
