<?xml version="1.0" encoding="utf-8"?>
<!-- Generator: Adobe Illustrator 16.0.0, SVG Export Plug-In . SVG Version: 6.00 Build 0)  -->
<!DOCTYPE svg PUBLIC "-//W3C//DTD SVG 1.1//EN" "http://www.w3.org/Graphics/SVG/1.1/DTD/svg11.dtd">
<svg version="1.1" id="Layer_1" xmlns="http://www.w3.org/2000/svg" xmlns:xlink="http://www.w3.org/1999/xlink" x="0px" y="0px"
	 width="100px" height="100px" viewBox="0 0 100 100" enable-background="new 0 0 100 100" xml:space="preserve">
<g>
	<path fill="#FF1764" d="M32.524,58.834c-3.852-3.778-7.407-8.371-9.704-13.26c-1.185-2.593-1.852-5.186-1.407-8.074
		c0.444-2.963,1.926-5.778,4.074-7.926c4.815-4.741,12.593-5.333,18.074-1.408c1.259,0.889,2.667,2.222,4.074,0.741
		c1.407-1.407,0.296-2.963-0.889-3.926c-2.963-2.296-6.592-3.704-10.37-3.926c-6.148-0.371-12.222,2.519-15.926,7.481
		c-3.556,4.889-4.593,11.111-2.519,16.741c2.592,7.185,7.778,13.038,13.037,18.296c2.889,2.889,5.852,5.778,8.741,8.741
		c1.259,1.259,2.444,2.443,3.704,3.703c0.889,0.889,1.778,2,3.185,1.63c1.63-0.444,2.222-2.519,1.037-3.704L32.524,58.834z"/>
	<path fill="#FF1764" d="M51.339,74.019c-0.741,3.334,2.963,6.148,6,4.444c0.89-0.519,1.407-1.333,2-2.074
		c2.296-2.963,4.593-5.852,6.89-8.814c1.48-1.926,2.889-3.926,4.518-5.777c2.593-2.89,5.111-5.704,7.26-8.89
		c3.037-4.444,5.629-9.629,5.037-15.185c-0.593-5.556-3.704-10.667-8.371-13.704c-5.186-3.333-11.926-3.852-17.629-1.259
		c-1.557,0.667-3.037,1.629-4.297,2.741c-0.518,0.444-1.111,0.963-1.26,1.704c-0.147,0.741,0.074,1.408-0.147,2.148
		c-0.37,1.259-1.481,2.148-2.147,3.259c-0.741,1.185-1.186,2.519-1.259,3.926c-0.148,3.037,1.333,5.259,3.481,7.111
		c1.037,0.889,1.926,1.777,1.926,3.259c0,1.408-0.889,2.371-1.704,3.481c-1.777,2.445-2.443,5.408-1.258,8.297
		c0.518,1.186,1.333,2.148,2.295,3.037c0.889,0.814,2,1.481,2.371,2.666c0.592,1.704-0.371,2.741-1.111,4.148 M67.486,58.834
		l-11.258,14.37c0.443-1.556,1.926-2.741,2.666-4.223c0.889-1.703,0.963-3.703,0.519-5.629c-0.37-1.556-1.259-2.815-2.444-3.927
		c-1.111-1.037-2.445-1.852-2.667-3.481c-0.222-1.777,0.963-2.963,1.927-4.296c0.963-1.333,1.555-2.889,1.629-4.519
		c0-1.852-0.519-3.63-1.629-5.111c-0.89-1.185-2.223-1.926-3.111-3.037c-1.334-1.704-0.52-3.556,0.592-5.037
		c1.186-1.556,2.148-3.259,2.223-5.259c6.37-5.111,15.926-3.629,20.444,3.111c1.926,2.815,2.889,6.444,2.222,9.778
		c-0.666,3.407-2.518,6.519-4.518,9.333C72.154,53.723,69.932,56.463,67.486,58.834z"/>
</g>
</svg>
